<?xml version="1.0" encoding="iso-8859-1"?>
<!-- Generator: Adobe Illustrator 24.1.0, SVG Export Plug-In . SVG Version: 6.00 Build 0)  -->
<svg version="1.1" id="Livello_1" xmlns="http://www.w3.org/2000/svg" xmlns:xlink="http://www.w3.org/1999/xlink" x="0px" y="0px"
	 width="595.276px" height="841.89px" viewBox="0 0 595.276 841.89" enable-background="new 0 0 595.276 841.89"
	 xml:space="preserve">
<path fill="#3B4656" d="M233.454,453.738l-2.6-3.583l-1.392,1.454v2.129h-0.86v-7.166h0.86v4.003l3.757-4.003h1.054l-2.856,2.989
	l3.05,4.177H233.454z M240.27,451.69c0,0.686-0.43,1.26-1.218,1.26h-2.62v-2.477h2.447
	C239.646,450.473,240.27,450.892,240.27,451.69 M238.96,447.36c0.686,0,1.167,0.379,1.167,1.075c0,0.696-0.451,1.269-1.3,1.269
	h-2.395v-2.344H238.96z M241.161,451.711c0-0.747-0.409-1.382-1.187-1.689c0.614-0.276,1.023-0.819,1.023-1.587
	c0-1.095-0.737-1.863-2.119-1.863h-3.286v7.166h3.367C240.158,453.738,241.161,453.011,241.161,451.711 M249.984,450.114
	c0,1.669-1.044,2.836-2.538,2.836h-1.73v-5.59h1.73C248.94,447.442,249.984,448.569,249.984,450.114 M250.885,450.114
	c0-2.089-1.433-3.542-3.491-3.542h-2.529v7.166h2.529C249.451,453.738,250.885,452.253,250.885,450.114 M252.727,450.462
	c0.174-0.973,0.809-1.536,1.669-1.536c0.89,0,1.474,0.614,1.607,1.536H252.727 M256.882,450.83
	c-0.031-1.638-0.993-2.641-2.487-2.641c-1.372,0-2.57,1.003-2.57,2.856c0,1.628,1.065,2.805,2.672,2.805
	c1.238,0,2.119-0.706,2.364-1.812h-0.829c-0.246,0.696-0.778,1.075-1.535,1.075c-1.095,0-1.771-0.788-1.822-1.945h4.207V450.83z
	 M258.069,453.738h0.86v-7.678h-0.86V453.738z M264.978,450.104c0-1.106-0.757-1.914-1.985-1.914c-0.779,0-1.454,0.328-1.833,0.86
	l-0.051-0.737h-0.717v5.425h0.85v-3.296c0.01-0.829,0.604-1.505,1.628-1.505c0.727,0,1.269,0.42,1.269,1.198v3.603h0.839V450.104
	 M266.329,453.738h0.839v-5.425h-0.839V453.738z M266.114,446.787c0,0.358,0.276,0.634,0.635,0.634s0.624-0.276,0.624-0.634
	s-0.266-0.625-0.624-0.625S266.114,446.429,266.114,446.787 M272.655,452.274c0-1.167-1.044-1.413-1.966-1.597
	c-0.788-0.153-1.331-0.287-1.331-0.901c0-0.522,0.492-0.859,1.157-0.859c0.696,0,1.156,0.337,1.269,0.921h0.829
	c-0.153-1.034-0.932-1.648-2.098-1.648c-1.116,0-1.976,0.686-1.976,1.607c0,1.239,1.229,1.444,1.996,1.597
	c0.88,0.174,1.279,0.358,1.279,0.911c0,0.491-0.471,0.819-1.198,0.819c-0.86,0-1.402-0.369-1.463-0.993h-0.829
	c0.071,1.084,0.922,1.719,2.283,1.719C271.805,453.85,272.655,453.215,272.655,452.274 M277.598,453.738h0.952l-2.242-3.429
	l1.976-1.996h-1.014l-2.651,2.681v-4.934h-0.849v7.677h0.849v-1.719l1.136-1.147L277.598,453.738z M282.778,451.547
	c-0.01,0.901-0.523,1.546-1.761,1.546c-0.727,0-1.239-0.358-1.239-0.87c0-1.29,2.631-0.737,3-1.249V451.547 M283.934,452.97
	c-0.215,0-0.328-0.122-0.328-0.328v-2.436c0-1.269-0.809-2.016-2.19-2.016c-1.28,0-2.242,0.716-2.345,1.75h0.839
	c0.051-0.594,0.666-1.013,1.505-1.013c0.859,0,1.361,0.471,1.361,1.269c0,0.686-3.849-0.143-3.849,2.068
	c0,0.911,0.829,1.546,2.016,1.546c0.901,0,1.515-0.328,1.873-0.87v0.031c0,0.482,0.379,0.768,0.973,0.768h0.399v-0.768H283.934z
	 M292.736,450.114c0,1.669-1.044,2.836-2.538,2.836h-1.73v-5.59h1.73C291.692,447.442,292.736,448.569,292.736,450.114
	 M293.637,450.114c0-2.089-1.433-3.542-3.491-3.542h-2.529v7.166h2.529C292.205,453.738,293.637,452.253,293.637,450.114
	 M297.516,448.282c-0.9,0-1.535,0.369-1.883,1.065l-0.103-1.034h-0.676v5.425h0.85v-2.846c0-1.146,0.635-1.771,1.812-1.771h0.185
	v-0.839H297.516z M302.306,448.313v3.285c-0.01,0.83-0.563,1.505-1.576,1.505c-0.778,0-1.32-0.419-1.32-1.198v-3.593h-0.839v3.624
	c0,1.105,0.757,1.914,2.078,1.914c0.737,0,1.403-0.317,1.751-0.922l0.082,0.809h0.675v-5.425H302.306z M308.499,449.08v-0.768
	h-4.074v0.768h3.101l-3.194,3.89v0.768h4.208v-0.768h-3.235L308.499,449.08z M314.016,450.994c0,1.167-0.604,2.119-1.668,2.119
	c-0.993,0-1.792-0.757-1.792-2.16c0-1.116,0.594-2.026,1.792-2.026C313.238,448.927,314.016,449.653,314.016,450.994
	 M314.896,450.994c0-1.546-0.881-2.804-2.488-2.804c-0.757,0-1.413,0.307-1.853,0.829v-2.959h-0.839v7.678h0.675l0.072-0.839
	c0.41,0.604,1.085,0.952,1.945,0.952C313.76,453.851,314.896,452.848,314.896,450.994 M319.523,451.547
	c-0.01,0.901-0.523,1.546-1.761,1.546c-0.727,0-1.238-0.358-1.238-0.87c0-1.29,2.631-0.737,2.999-1.249V451.547 M320.679,452.97
	c-0.215,0-0.328-0.122-0.328-0.328v-2.436c0-1.269-0.809-2.016-2.19-2.016c-1.28,0-2.242,0.716-2.345,1.75h0.839
	c0.051-0.594,0.665-1.013,1.505-1.013c0.859,0,1.361,0.471,1.361,1.269c0,0.686-3.849-0.143-3.849,2.068
	c0,0.911,0.829,1.546,2.016,1.546c0.901,0,1.515-0.328,1.873-0.87v0.031c0,0.482,0.379,0.768,0.973,0.768h0.399v-0.768H320.679z
	 M324.007,451.598c0.113,1.423,1.228,2.252,2.999,2.252c1.566,0,2.682-0.839,2.682-2.057c0-1.495-1.29-1.792-2.58-2.048
	c-1.074-0.215-1.944-0.328-1.944-1.29c0-0.706,0.706-1.218,1.699-1.218c0.973,0,1.648,0.512,1.823,1.382h0.89
	c-0.194-1.361-1.197-2.16-2.713-2.16c-1.494,0-2.559,0.829-2.559,2.027c0,1.587,1.535,1.842,2.6,2.047
	c1.136,0.215,1.904,0.379,1.904,1.29c0,0.717-0.757,1.239-1.801,1.239c-1.228,0-2.017-0.543-2.109-1.464H324.007 M330.032,453.433
	c0,0.207,0.155,0.362,0.362,0.362s0.363-0.155,0.363-0.362c0-0.201-0.156-0.357-0.363-0.357S330.032,453.231,330.032,453.433
	 M336.04,450.994c0,1.167-0.604,2.119-1.669,2.119c-0.993,0-1.792-0.757-1.792-2.16c0-1.116,0.594-2.026,1.792-2.026
	C335.262,448.927,336.04,449.653,336.04,450.994 M336.92,450.994c0-1.546-0.88-2.804-2.487-2.804c-0.809,0-1.495,0.348-1.946,0.941
	l-0.071-0.819h-0.676v7.472h0.839v-2.753c0.42,0.522,1.055,0.819,1.853,0.819C335.784,453.851,336.92,452.848,336.92,450.994
	 M336.993,453.433c0,0.207,0.155,0.362,0.362,0.362c0.207,0,0.363-0.155,0.363-0.362c0-0.201-0.156-0.357-0.363-0.357
	C337.148,453.076,336.993,453.231,336.993,453.433 M340.308,450.851l1.351-3.276l1.351,3.276H340.308z M344.198,453.738h0.87
	l-2.958-7.165h-0.87l-2.948,7.165h0.829l0.87-2.119h3.337L344.198,453.738z M345.642,453.433c0,0.207,0.155,0.362,0.362,0.362
	c0.207,0,0.363-0.155,0.363-0.362c0-0.201-0.156-0.357-0.363-0.357C345.797,453.076,345.642,453.231,345.642,453.433
	 M271.891,446.423h-2.929v0.708h2.929V446.423z M307.845,446.423h-2.929v0.708h2.929V446.423z"/>
<g>
	<linearGradient id="SVGID_1_" gradientUnits="userSpaceOnUse" x1="437.3227" y1="443.0461" x2="501.1024" y2="443.0461">
		<stop  offset="0" style="stop-color:#EC6608"/>
		<stop  offset="0.2779" style="stop-color:#E0440F"/>
		<stop  offset="0.5453" style="stop-color:#D82B10"/>
		<stop  offset="0.7925" style="stop-color:#D31610"/>
		<stop  offset="1" style="stop-color:#D20A11"/>
	</linearGradient>
	<path fill="url(#SVGID_1_)" d="M477.044,427.101h0.141c-0.047,0-0.094,0.003-0.141,0.004V427.101z M492.217,421.786
		c-4.108,3.323-9.337,5.315-15.032,5.315c7.338,0,13.287,5.949,13.287,13.287c0,7.338-5.949,13.287-13.287,13.287
		c-0.047,0-0.094-0.003-0.141-0.004v0.004h-39.721v10.63h39.862c13.209,0,23.917-10.708,23.917-23.917
		C501.102,432.875,497.636,426.171,492.217,421.786z"/>
	<linearGradient id="SVGID_2_" gradientUnits="userSpaceOnUse" x1="437.3227" y1="403.1839" x2="501.1024" y2="403.1839">
		<stop  offset="0" style="stop-color:#D20A11"/>
		<stop  offset="1" style="stop-color:#662483"/>
	</linearGradient>
	<path fill="url(#SVGID_2_)" d="M477.185,379.267h-39.863v10.63h19.974h19.748v0.004c0.047,0,0.094-0.004,0.141-0.004
		c7.338,0,13.287,5.949,13.287,13.287s-5.949,13.287-13.287,13.287c-0.047,0-0.094-0.003-0.141-0.004v0.004h-39.721v10.63h39.862
		c13.209,0,23.917-10.708,23.917-23.917C501.102,389.975,490.394,379.267,477.185,379.267z"/>
	<linearGradient id="SVGID_3_" gradientUnits="userSpaceOnUse" x1="384.3517" y1="440.388" x2="426.6927" y2="440.388">
		<stop  offset="0" style="stop-color:#EC6608"/>
		<stop  offset="0.2779" style="stop-color:#E0440F"/>
		<stop  offset="0.5453" style="stop-color:#D82B10"/>
		<stop  offset="0.7925" style="stop-color:#D31610"/>
		<stop  offset="1" style="stop-color:#D20A11"/>
	</linearGradient>
	<path fill="url(#SVGID_3_)" d="M388.788,440.532c-2.76-3.099-4.436-7.183-4.436-11.659c0-4.844,1.964-9.229,5.139-12.403
		l-0.003,0.001c-1.36,1.36-2.202,3.24-2.202,5.315c0,1.817,0.644,3.483,1.717,4.782l37.69,37.737H412.52L388.788,440.532z"/>
	<linearGradient id="SVGID_4_" gradientUnits="userSpaceOnUse" x1="377.2651" y1="410.2294" x2="426.6927" y2="410.2294">
		<stop  offset="0" style="stop-color:#D20A11"/>
		<stop  offset="1" style="stop-color:#662483"/>
	</linearGradient>
	<path fill="url(#SVGID_4_)" d="M382.402,409.385c-3.174,3.174-5.137,7.558-5.137,12.401s1.963,9.227,5.137,12.401l7.005,7.005
		c-3.126-3.167-5.055-7.518-5.055-12.319c0-4.843,1.963-9.227,5.137-12.401l37.204-37.205H412.52L382.402,409.385z"/>
</g>
<g>
	<path fill="#3B4656" d="M89.012,432.261l-7.224-9.955l-3.868,4.038v5.917h-2.389v-19.91h2.389v11.12l10.439-11.12h2.93
		l-7.936,8.305l8.476,11.605H89.012z"/>
	<path fill="#3B4656" d="M110.426,426.63c0,3.612-2.787,5.632-6.116,5.632h-9.357v-19.91h9.13c3.84,0,5.888,2.133,5.888,5.177
		c0,2.133-1.138,3.641-2.844,4.409C109.288,422.79,110.426,424.553,110.426,426.63z M97.285,414.541v6.513h6.656
		c2.361,0,3.612-1.593,3.612-3.527c0-1.934-1.337-2.987-3.243-2.987H97.285z M107.951,426.572c0-2.219-1.735-3.385-3.868-3.385
		h-6.798v6.884h7.281C106.756,430.071,107.951,428.478,107.951,426.572z"/>
	<path fill="#3B4656" d="M138.691,425.179v7.082h-2.02v-7.082h-0.057c-0.313,4.55-2.901,7.394-7.139,7.394
		c-5.774,0-9.671-4.038-9.671-10.325c0-5.916,3.612-10.211,9.671-10.211c5.063,0,8.561,3.072,9.386,7.964h-2.475
		c-0.739-3.641-3.271-5.774-6.911-5.774c-4.437,0-7.196,3.043-7.196,8.021c0,5.035,2.787,8.135,7.196,8.135
		c3.442,0,5.831-2.531,5.831-6.144h-6.713v-2.047h6.997C137.61,422.193,138.691,423.245,138.691,425.179z"/>
	<path fill="#3B4656" d="M150.49,417.101v2.333h-0.512c-3.271,0-5.034,1.735-5.034,4.92v7.908h-2.36v-15.075h1.877l0.285,2.873
		c0.967-1.934,2.73-2.958,5.233-2.958H150.49z"/>
	<path fill="#3B4656" d="M165.646,417.186v15.075h-1.877l-0.228-2.247c-0.967,1.679-2.815,2.56-4.864,2.56
		c-3.669,0-5.774-2.246-5.774-5.318v-10.069h2.332v9.984c0,2.161,1.507,3.328,3.669,3.328c2.815,0,4.351-1.877,4.38-4.181v-9.13
		H165.646z"/>
	<path fill="#3B4656" d="M183.903,424.638c0,5.149-3.157,7.935-6.912,7.935c-2.219,0-3.983-0.824-5.149-2.275v7.651h-2.332v-20.763
		h1.877l0.199,2.275c1.252-1.649,3.157-2.616,5.405-2.616C181.457,416.845,183.903,420.343,183.903,424.638z M181.457,424.638
		c0-3.726-2.161-5.745-4.636-5.745c-3.329,0-4.978,2.532-4.978,5.632c0,3.897,2.219,6.002,4.978,6.002
		C179.779,430.526,181.457,427.88,181.457,424.638z"/>
	<path fill="#3B4656" d="M201.391,424.638c0,5.149-3.157,7.935-6.912,7.935c-2.219,0-3.982-0.824-5.148-2.275v7.651h-2.332v-20.763
		h1.877l0.199,2.275c1.252-1.649,3.157-2.616,5.404-2.616C198.944,416.845,201.391,420.343,201.391,424.638z M198.944,424.638
		c0-3.726-2.161-5.745-4.636-5.745c-3.328,0-4.978,2.532-4.978,5.632c0,3.897,2.218,6.002,4.978,6.002
		C197.267,430.526,198.944,427.88,198.944,424.638z"/>
	<path fill="#3B4656" d="M203.718,424.582c0-5.035,3.299-7.736,7.338-7.736c4.778,0,7.367,3.469,7.367,7.736
		c0,5.205-3.157,7.992-7.367,7.992C206.277,432.574,203.718,429.132,203.718,424.582z M216.062,424.582
		c0-3.385-1.963-5.689-5.006-5.689c-3.043,0-5.006,2.304-5.006,5.689c0,3.869,2.247,5.945,5.006,5.945
		C214.298,430.526,216.062,427.853,216.062,424.582z"/>
	<path fill="#3B4656" d="M228.543,410.929h2.389v21.333h-2.389V410.929z"/>
	<path fill="#3B4656" d="M241.309,426.317h2.474c0.257,2.56,2.447,4.067,5.859,4.067c2.901,0,5.006-1.451,5.006-3.441
		c0-2.531-2.133-2.987-5.291-3.583c-2.958-0.569-7.224-1.28-7.224-5.689c0-3.328,2.958-5.632,7.11-5.632
		c4.21,0,6.997,2.219,7.538,6.001h-2.475c-0.483-2.418-2.36-3.84-5.063-3.84c-2.759,0-4.721,1.422-4.721,3.385
		c0,2.674,2.417,2.987,5.404,3.584c3.584,0.711,7.167,1.535,7.167,5.688c0,3.385-3.1,5.717-7.452,5.717
		C244.723,432.574,241.623,430.271,241.309,426.317z"/>
	<path fill="#3B4656" d="M266.022,424.297l-3.157,3.186v4.778h-2.361v-21.333h2.361v13.71l7.367-7.452h2.815l-5.489,5.546
		l6.229,9.529h-2.646L266.022,424.297z"/>
	<path fill="#3B4656" d="M288.232,417.186v15.075h-1.878l-0.227-2.247c-0.967,1.679-2.816,2.56-4.864,2.56
		c-3.669,0-5.774-2.246-5.774-5.318v-10.069h2.332v9.984c0,2.161,1.508,3.328,3.669,3.328c2.816,0,4.352-1.877,4.38-4.181v-9.13
		H288.232z"/>
	<path fill="#3B4656" d="M306.489,424.638c0,5.149-3.157,7.935-6.912,7.935c-2.219,0-3.983-0.824-5.149-2.275v7.651h-2.332v-20.763
		h1.877l0.199,2.275c1.252-1.649,3.157-2.616,5.405-2.616C304.042,416.845,306.489,420.343,306.489,424.638z M304.042,424.638
		c0-3.726-2.161-5.745-4.636-5.745c-3.329,0-4.978,2.532-4.978,5.632c0,3.897,2.219,6.002,4.978,6.002
		C302.364,430.526,304.042,427.88,304.042,424.638z"/>
	<path fill="#3B4656" d="M309.157,412.948c0-0.995,0.768-1.735,1.764-1.735c0.995,0,1.735,0.74,1.735,1.735
		c0,0.996-0.74,1.764-1.735,1.764C309.925,414.712,309.157,413.944,309.157,412.948z M309.755,417.186h2.333v15.075h-2.333V417.186z
		"/>
	<path fill="#3B4656" d="M328.838,422.164v10.098h-2.333v-10.012c0-2.161-1.507-3.328-3.527-3.328c-2.844,0-4.494,1.877-4.523,4.181
		v9.159h-2.36v-15.075h1.991l0.143,2.048c1.052-1.479,2.929-2.389,5.09-2.389C326.734,416.845,328.838,419.092,328.838,422.164z"/>
	<path fill="#3B4656" d="M346.099,430.128v2.133h-1.109c-1.65,0-2.702-0.797-2.702-2.133v-0.085
		c-0.996,1.507-2.702,2.418-5.205,2.418c-3.299,0-5.603-1.764-5.603-4.296c0-6.143,10.694-3.839,10.694-5.745
		c0-2.218-1.393-3.527-3.783-3.527c-2.332,0-4.038,1.166-4.181,2.816h-2.333c0.284-2.873,2.959-4.864,6.513-4.864
		c3.84,0,6.087,2.076,6.087,5.603v6.77c0,0.569,0.313,0.91,0.91,0.91H346.099z M342.174,426.174v-1.592
		c-1.024,1.422-8.334-0.114-8.334,3.47c0,1.422,1.422,2.417,3.442,2.417C340.723,430.469,342.145,428.677,342.174,426.174z"/>
</g>
</svg>
